<svg xmlns="http://www.w3.org/2000/svg" viewBox="0 0 500 500"><g id="freepik--background-complete--inject-63"><rect x="416.78" y="398.49" width="33.12" height="0.25" style="fill:#ebebeb"></rect><rect x="322.53" y="401.21" width="8.69" height="0.25" style="fill:#ebebeb"></rect><rect x="396.59" y="389.21" width="19.19" height="0.25" style="fill:#ebebeb"></rect><rect x="52.46" y="390.89" width="43.19" height="0.25" style="fill:#ebebeb"></rect><rect x="104.56" y="390.89" width="6.33" height="0.25" style="fill:#ebebeb"></rect><rect x="131.47" y="395.11" width="93.68" height="0.25" style="fill:#ebebeb"></rect><path d="M238.4,337.8H45.3a5.71,5.71,0,0,1-5.71-5.71V60.66A5.71,5.71,0,0,1,45.3,55H238.4a5.71,5.71,0,0,1,5.71,5.71V332.09A5.71,5.71,0,0,1,238.4,337.8ZM45.3,55.2a5.47,5.47,0,0,0-5.46,5.46V332.09a5.47,5.47,0,0,0,5.46,5.46H238.4a5.47,5.47,0,0,0,5.46-5.46V60.66a5.47,5.47,0,0,0-5.46-5.46Z" style="fill:#ebebeb"></path><path d="M454.7,337.8H261.6a5.71,5.71,0,0,1-5.71-5.71V60.66A5.71,5.71,0,0,1,261.6,55H454.7a5.71,5.71,0,0,1,5.71,5.71V332.09A5.71,5.71,0,0,1,454.7,337.8ZM261.6,55.2a5.47,5.47,0,0,0-5.46,5.46V332.09a5.47,5.47,0,0,0,5.46,5.46H454.7a5.47,5.47,0,0,0,5.46-5.46V60.66a5.47,5.47,0,0,0-5.46-5.46Z" style="fill:#ebebeb"></path><rect y="382.4" width="500" height="0.25" style="fill:#ebebeb"></rect><rect x="95.1" y="267.14" width="4.4" height="96.65" style="fill:#e6e6e6"></rect><path d="M127.77,255.43v0H113.38a1.66,1.66,0,0,0-1.53.77c-3.55,4.57-6.77,7.78-12,7.91-1.11,0-9.78,0-13,0-4,0-8-.36-11.81,1.75s-6.65,6.46-9.57,10.24c-1.46,1.88,0,4.57,1.58,4.5H81.62v0a1.84,1.84,0,0,0,1.12-.76c3.51-4.53,6.77-9.8,12.1-10.39h.06c1.92,0,9,0,10.22,0,3.31,0,6.63.14,9.94,0,6.05-.26,10-4.19,14.05-9.47C130.51,258.13,129.26,255.61,127.77,255.43Z" style="fill:#f0f0f0"></path><path d="M82.75,279.83c3.51-4.53,6.77-9.8,12.1-10.39,3.39-.38,6.89-.05,10.28-.05s6.63.14,9.94,0c6.05-.26,10-4.19,14.05-9.47,1.86-2.4-1-6.14-2.89-3.73-3.59,4.64-6.86,7.88-12.18,7.92-4.27,0-8.53,0-12.8,0-4,0-8-.36-11.82,1.75s-6.65,6.46-9.57,10.24c-1.86,2.41,1,6.14,2.89,3.73Z" style="fill:#e0e0e0"></path><path d="M118.65,377.49A18.53,18.53,0,0,1,100.12,359H94.48A18.53,18.53,0,0,1,76,377.49h0A2.26,2.26,0,0,0,76,382h42.7a2.26,2.26,0,0,0,0-4.52Z" style="fill:#e0e0e0"></path><path d="M77.3,343.1h40a1.32,1.32,0,0,0,0-2.64h-40a1.32,1.32,0,0,0,0,2.64Z" style="fill:#f0f0f0"></path><path d="M283.28,274.41h5.6a0,0,0,0,1,0,0V381.68a1.47,1.47,0,0,1-1.47,1.47h-2.66a1.47,1.47,0,0,1-1.47-1.47V274.41A0,0,0,0,1,283.28,274.41Z" style="fill:#e0e0e0"></path><path d="M297.18,274.41h5.6a0,0,0,0,1,0,0V381.68a1.47,1.47,0,0,1-1.47,1.47h-2.66a1.47,1.47,0,0,1-1.47-1.47V274.41A0,0,0,0,1,297.18,274.41Z" style="fill:#e0e0e0"></path><path d="M392.08,274.41h5.6a0,0,0,0,1,0,0V381.68a1.47,1.47,0,0,1-1.47,1.47h-2.66a1.47,1.47,0,0,1-1.47-1.47V274.41A0,0,0,0,1,392.08,274.41Z" style="fill:#e0e0e0"></path><path d="M406,274.41h5.6a0,0,0,0,1,0,0V381.68a1.47,1.47,0,0,1-1.47,1.47h-2.66a1.47,1.47,0,0,1-1.47-1.47V274.41A0,0,0,0,1,406,274.41Z" style="fill:#e0e0e0"></path><path d="M421.47,269.46c12.91,4.8,16.42,25.4,0,28-6.16,1-11.82-7.55-18.46-7.55s-11.82,7.55-18.46,7.55-11.82-7.55-18.46-7.55-11.82,7.55-18.46,7.55-11.82-7.55-18.46-7.55-11.82,7.55-18.46,7.55-11.82-7.55-18.46-7.55-12.3,8.54-18.46,7.55c-16.43-2.62-14-23.72,0-28Z" style="fill:#f0f0f0"></path><path d="M400.37,218.76V202.94a2.21,2.21,0,0,0-2.21-2.21H396a2.21,2.21,0,0,0-2.21,2.21v15.82L391,223.48a16.33,16.33,0,0,0-2.31,8.37v35.39a2.89,2.89,0,0,0,2.89,2.9h11.1a2.89,2.89,0,0,0,2.89-2.9V231.85a16.33,16.33,0,0,0-2.31-8.37Z" style="fill:#e6e6e6"></path><path d="M394,245.66c0,12.57.24,22.76-.62,22.76s-1.56-10.19-1.56-22.76,1.63-22.75,2.5-22.75S394,233.1,394,245.66Z" style="fill:#f5f5f5"></path><path d="M396.22,211c0,4.43-.45,8-1,8s-.14-3.58-.14-8,.45-8,1-8S396.22,206.6,396.22,211Z" style="fill:#f5f5f5"></path><path d="M387.37,269.69h-8a1.27,1.27,0,0,1-1.27-1.22l-.8-19.59h12.09l-.79,19.59A1.28,1.28,0,0,1,387.37,269.69Z" style="fill:#ebebeb"></path><rect x="376.43" y="247.47" width="13.92" height="1.41" rx="0.63" style="fill:#f5f5f5"></rect><path d="M323.88,250.94l-.36-.61h-7.36l-.37.61a1.64,1.64,0,0,0-.24.86v15.76a1.64,1.64,0,0,0,.24.86l.37.61h7.36l.36-.61a1.64,1.64,0,0,0,.24-.86V251.8A1.64,1.64,0,0,0,323.88,250.94Z" style="fill:#e0e0e0"></path><path d="M324.21,250.52h-8.75A.49.49,0,0,1,315,250h0a.49.49,0,0,1,.49-.49h8.75a.49.49,0,0,1,.49.49h0A.49.49,0,0,1,324.21,250.52Z" style="fill:#e0e0e0"></path><path d="M324.21,269.82h-8.75a.49.49,0,0,1-.49-.49h0a.49.49,0,0,1,.49-.49h8.75a.49.49,0,0,1,.49.49h0A.49.49,0,0,1,324.21,269.82Z" style="fill:#e0e0e0"></path><polygon points="315.55 264.92 324.12 262.05 324.12 254.44 315.55 257.31 315.55 264.92" style="fill:#fafafa;opacity:0.8"></polygon><path d="M335.63,250.94l-.36-.61h-7.36l-.37.61a1.64,1.64,0,0,0-.24.86v15.76a1.64,1.64,0,0,0,.24.86l.37.61h7.36l.36-.61a1.64,1.64,0,0,0,.24-.86V251.8A1.64,1.64,0,0,0,335.63,250.94Z" style="fill:#e0e0e0"></path><path d="M336,250.52h-8.75a.49.49,0,0,1-.49-.49h0a.49.49,0,0,1,.49-.49H336a.49.49,0,0,1,.49.49h0A.49.49,0,0,1,336,250.52Z" style="fill:#e0e0e0"></path><path d="M336,269.82h-8.75a.49.49,0,0,1-.49-.49h0a.49.49,0,0,1,.49-.49H336a.49.49,0,0,1,.49.49h0A.49.49,0,0,1,336,269.82Z" style="fill:#e0e0e0"></path><polygon points="327.3 264.92 335.87 262.05 335.87 254.44 327.3 257.31 327.3 264.92" style="fill:#fafafa;opacity:0.8"></polygon><path d="M329.76,230.65l-.37-.61H322l-.36.61a1.64,1.64,0,0,0-.24.86v15.76a1.64,1.64,0,0,0,.24.86l.36.62h7.36l.37-.62a1.74,1.74,0,0,0,.24-.86V231.51A1.74,1.74,0,0,0,329.76,230.65Z" style="fill:#e0e0e0"></path><path d="M330.09,230.23h-8.75a.49.49,0,0,1-.49-.49h0a.49.49,0,0,1,.49-.49h8.75a.49.49,0,0,1,.49.49h0A.49.49,0,0,1,330.09,230.23Z" style="fill:#e0e0e0"></path><path d="M330.09,249.54h-8.75a.49.49,0,0,1-.49-.5h0a.49.49,0,0,1,.49-.49h8.75a.49.49,0,0,1,.49.49h0A.49.49,0,0,1,330.09,249.54Z" style="fill:#e0e0e0"></path><polygon points="321.43 244.63 330 241.76 330 234.16 321.43 237.03 321.43 244.63" style="fill:#fafafa;opacity:0.8"></polygon><path d="M341.51,230.65l-.37-.61h-7.36l-.36.61a1.64,1.64,0,0,0-.24.86v15.76a1.64,1.64,0,0,0,.24.86l.36.62h7.36l.37-.62a1.74,1.74,0,0,0,.24-.86V231.51A1.74,1.74,0,0,0,341.51,230.65Z" style="fill:#e0e0e0"></path><path d="M341.84,230.23h-8.75a.49.49,0,0,1-.49-.49h0a.49.49,0,0,1,.49-.49h8.75a.49.49,0,0,1,.49.49h0A.49.49,0,0,1,341.84,230.23Z" style="fill:#e0e0e0"></path><path d="M341.84,249.54h-8.75a.49.49,0,0,1-.49-.5h0a.49.49,0,0,1,.49-.49h8.75a.49.49,0,0,1,.49.49h0A.49.49,0,0,1,341.84,249.54Z" style="fill:#e0e0e0"></path><polygon points="333.18 244.63 341.75 241.76 341.75 234.16 333.18 237.03 333.18 244.63" style="fill:#fafafa;opacity:0.8"></polygon><path d="M335.63,210.3l-.36-.61h-7.36l-.37.61a1.65,1.65,0,0,0-.24.87v15.75a1.62,1.62,0,0,0,.24.86l.37.62h7.36l.36-.62a1.62,1.62,0,0,0,.24-.86V211.17A1.65,1.65,0,0,0,335.63,210.3Z" style="fill:#e0e0e0"></path><path d="M336,209.88h-8.75a.49.49,0,0,1-.49-.49h0a.49.49,0,0,1,.49-.49H336a.49.49,0,0,1,.49.49h0A.49.49,0,0,1,336,209.88Z" style="fill:#e0e0e0"></path><path d="M336,229.19h-8.75a.49.49,0,0,1-.49-.49h0a.49.49,0,0,1,.49-.5H336a.49.49,0,0,1,.49.5h0A.49.49,0,0,1,336,229.19Z" style="fill:#e0e0e0"></path><polygon points="327.3 224.28 335.87 221.41 335.87 213.81 327.3 216.68 327.3 224.28" style="fill:#fafafa;opacity:0.8"></polygon><path d="M347.38,250.94l-.36-.61h-7.36l-.37.61a1.64,1.64,0,0,0-.24.86v15.76a1.64,1.64,0,0,0,.24.86l.37.61H347l.36-.61a1.64,1.64,0,0,0,.24-.86V251.8A1.64,1.64,0,0,0,347.38,250.94Z" style="fill:#e0e0e0"></path><path d="M347.71,250.52H339a.49.49,0,0,1-.49-.49h0a.49.49,0,0,1,.49-.49h8.75a.49.49,0,0,1,.49.49h0A.49.49,0,0,1,347.71,250.52Z" style="fill:#e0e0e0"></path><path d="M347.71,269.82H339a.49.49,0,0,1-.49-.49h0a.49.49,0,0,1,.49-.49h8.75a.49.49,0,0,1,.49.49h0A.49.49,0,0,1,347.71,269.82Z" style="fill:#e0e0e0"></path><polygon points="339.05 264.92 347.62 262.05 347.62 254.44 339.05 257.31 339.05 264.92" style="fill:#fafafa;opacity:0.8"></polygon><path d="M379.13,129c-4.86,0-15.8,9.87-15.8,9.87s9.87-10.93,9.87-15.8-9.87-15.79-9.87-15.79,10.94,9.87,15.8,9.87,15.8-9.87,15.8-9.87-9.87,10.93-9.87,15.79,9.87,15.8,9.87,15.8S384,129,379.13,129Z" style="fill:#ebebeb"></path><path d="M356.44,125.15c-2.43,0-7.9,4.94-7.9,4.94s4.93-5.47,4.93-7.9-4.93-7.9-4.93-7.9,5.47,4.93,7.9,4.93,7.89-4.93,7.89-4.93-4.93,5.47-4.93,7.9,4.93,7.9,4.93,7.9S358.87,125.15,356.44,125.15Z" style="fill:#f0f0f0"></path><path d="M141.33,114.64c-3.72,0-12.11,7.57-12.11,7.57s7.57-8.39,7.57-12.12S129.22,98,129.22,98s8.39,7.57,12.11,7.57S153.44,98,153.44,98s-7.56,8.39-7.56,12.11,7.56,12.12,7.56,12.12S145.06,114.64,141.33,114.64Z" style="fill:#ebebeb"></path><path d="M123.93,111.71c-1.86,0-6.06,3.79-6.06,3.79s3.79-4.19,3.79-6.06-3.79-6-3.79-6,4.2,3.78,6.06,3.78,6.06-3.78,6.06-3.78-3.79,4.19-3.79,6S130,115.5,130,115.5,125.79,111.71,123.93,111.71Z" style="fill:#f0f0f0"></path></g><g id="freepik--Shadow--inject-63"><ellipse id="freepik--path--inject-63" cx="245.18" cy="412.39" rx="193.89" ry="11.32" style="fill:#f5f5f5"></ellipse></g><g id="freepik--disco-ball--inject-63"><rect x="247.93" y="58.68" width="4.15" height="35.78" style="fill:#407BFF"></rect><rect x="247.93" y="58.68" width="4.15" height="35.78" style="fill:#fff;opacity:0.5"></rect><circle cx="250" cy="128.17" r="36.44" style="fill:#407BFF"></circle><circle cx="250" cy="128.17" r="36.44" style="fill:#fff;opacity:0.6000000000000001"></circle><path d="M250,91.73c-.79,0-1.57,0-2.35.08,16.73,1.21,30,17,30,36.36s-13.24,35.14-30,36.35c.78,0,1.56.08,2.35.08a36.44,36.44,0,1,0,0-72.87Z" style="opacity:0.1"></path><g style="opacity:0.2"><rect x="227.37" y="100.9" width="9.76" height="7.87" rx="3.42" style="fill:#fff"></rect><rect x="238.39" y="100.9" width="9.76" height="7.87" rx="3.42" style="fill:#fff"></rect><rect x="256.85" y="110.07" width="9.76" height="7.87" rx="3.42" style="fill:#fff"></rect><rect x="267.87" y="110.07" width="9.76" height="7.87" rx="3.42" style="fill:#fff"></rect><rect x="216.35" y="119.24" width="9.76" height="7.87" rx="3.42" style="fill:#fff"></rect><rect x="249.4" y="119.24" width="9.76" height="7.87" rx="3.42" style="fill:#fff"></rect><rect x="223.8" y="128.41" width="9.76" height="7.87" rx="3.42" style="fill:#fff"></rect><rect x="245.83" y="128.41" width="9.76" height="7.87" rx="3.42" style="fill:#fff"></rect><rect x="224.43" y="146.75" width="9.76" height="7.87" rx="3.42" style="fill:#fff"></rect></g><g style="opacity:0.8"><rect x="249.4" y="100.9" width="9.76" height="7.87" rx="3.42" style="fill:#fff"></rect><rect x="234.82" y="110.07" width="9.76" height="7.87" rx="3.42" style="fill:#fff"></rect><rect x="227.37" y="119.24" width="9.76" height="7.87" rx="3.42" style="fill:#fff"></rect><rect x="238.39" y="119.24" width="9.76" height="7.87" rx="3.42" style="fill:#fff"></rect><rect x="260.42" y="119.24" width="9.76" height="7.87" rx="3.42" style="fill:#fff"></rect><rect x="271.44" y="119.24" width="9.76" height="7.87" rx="3.42" style="fill:#fff"></rect><rect x="227.37" y="137.58" width="9.76" height="7.87" rx="3.42" style="fill:#fff"></rect><rect x="238.39" y="137.58" width="9.76" height="7.87" rx="3.42" style="fill:#fff"></rect><rect x="271.44" y="137.58" width="9.76" height="7.87" rx="3.42" style="fill:#fff"></rect><rect x="246.46" y="146.75" width="9.76" height="7.87" rx="3.42" style="fill:#fff"></rect><rect x="257.48" y="146.75" width="9.76" height="7.87" rx="3.42" style="fill:#fff"></rect></g><g style="opacity:0.5"><rect x="260.42" y="100.9" width="9.76" height="7.87" rx="3.42" style="fill:#fff"></rect><rect x="223.8" y="110.07" width="9.76" height="7.87" rx="3.42" style="fill:#fff"></rect><rect x="245.83" y="110.07" width="9.76" height="7.87" rx="3.42" style="fill:#fff"></rect><rect x="234.82" y="128.41" width="9.76" height="7.87" rx="3.42" style="fill:#fff"></rect><rect x="256.85" y="128.41" width="9.76" height="7.87" rx="3.42" style="fill:#fff"></rect><rect x="267.87" y="128.41" width="9.76" height="7.87" rx="3.42" style="fill:#fff"></rect><rect x="216.35" y="137.58" width="9.76" height="7.87" rx="3.42" style="fill:#fff"></rect><rect x="249.4" y="137.58" width="9.76" height="7.87" rx="3.42" style="fill:#fff"></rect><rect x="260.42" y="137.58" width="9.76" height="7.87" rx="3.42" style="fill:#fff"></rect><rect x="235.45" y="146.75" width="9.76" height="7.87" rx="3.42" style="fill:#fff"></rect><rect x="248.77" y="155.92" width="9.76" height="7.87" rx="3.42" style="fill:#fff"></rect></g></g><g id="freepik--Sparkles--inject-63"><path d="M297,169.07c1.54,0,5-3.11,5-3.11s-3.11,3.44-3.11,5,3.11,5,3.11,5-3.44-3.11-5-3.11-5,3.11-5,3.11,3.11-3.45,3.11-5-3.11-5-3.11-5S295.42,169.07,297,169.07Z" style="fill:#407BFF"></path><path d="M297,169.07c1.54,0,5-3.11,5-3.11s-3.11,3.44-3.11,5,3.11,5,3.11,5-3.44-3.11-5-3.11-5,3.11-5,3.11,3.11-3.45,3.11-5-3.11-5-3.11-5S295.42,169.07,297,169.07Z" style="fill:#fff;opacity:0.7000000000000001"></path><path d="M297,107.57c1.54,0,5-3.11,5-3.11s-3.11,3.45-3.11,5,3.11,5,3.11,5-3.44-3.11-5-3.11-5,3.11-5,3.11,3.11-3.45,3.11-5-3.11-5-3.11-5S295.43,107.57,297,107.57Z" style="fill:#407BFF"></path><path d="M297,107.57c1.54,0,5-3.11,5-3.11s-3.11,3.45-3.11,5,3.11,5,3.11,5-3.44-3.11-5-3.11-5,3.11-5,3.11,3.11-3.45,3.11-5-3.11-5-3.11-5S295.43,107.57,297,107.57Z" style="fill:#fff;opacity:0.7000000000000001"></path><path d="M282.65,166.66c3.06,0,10-6.22,10-6.22s-6.23,6.9-6.23,10,6.23,10,6.23,10-6.9-6.22-10-6.22-10,6.22-10,6.22,6.22-6.89,6.22-10-6.22-10-6.22-10S279.58,166.66,282.65,166.66Z" style="fill:#407BFF"></path><path d="M282.65,166.66c3.06,0,10-6.22,10-6.22s-6.23,6.9-6.23,10,6.23,10,6.23,10-6.9-6.22-10-6.22-10,6.22-10,6.22,6.22-6.89,6.22-10-6.22-10-6.22-10S279.58,166.66,282.65,166.66Z" style="fill:#fff;opacity:0.7000000000000001"></path><path d="M203.15,89.5c3.07,0,10-6.22,10-6.22s-6.22,6.9-6.22,10,6.22,10,6.22,10-6.89-6.22-10-6.22-10,6.22-10,6.22,6.22-6.9,6.22-10-6.22-10-6.22-10S200.09,89.5,203.15,89.5Z" style="fill:#407BFF"></path><path d="M203.15,89.5c3.07,0,10-6.22,10-6.22s-6.22,6.9-6.22,10,6.22,10,6.22,10-6.89-6.22-10-6.22-10,6.22-10,6.22,6.22-6.9,6.22-10-6.22-10-6.22-10S200.09,89.5,203.15,89.5Z" style="fill:#fff;opacity:0.8"></path><path d="M217.46,91.91c1.53,0,5-3.11,5-3.11s-3.11,3.44-3.11,5,3.11,5,3.11,5-3.45-3.12-5-3.12-5,3.12-5,3.12,3.11-3.45,3.11-5-3.11-5-3.11-5S215.93,91.91,217.46,91.91Z" style="fill:#407BFF"></path><path d="M217.46,91.91c1.53,0,5-3.11,5-3.11s-3.11,3.44-3.11,5,3.11,5,3.11,5-3.45-3.12-5-3.12-5,3.12-5,3.12,3.11-3.45,3.11-5-3.11-5-3.11-5S215.93,91.91,217.46,91.91Z" style="fill:#fff;opacity:0.7000000000000001"></path></g><g id="freepik--character-4--inject-63"><path d="M408.68,181.21h3.75a2.2,2.2,0,0,0,2.18-1.9l1.88-13.48a2.2,2.2,0,0,0-2.18-2.51h-3.75a2.2,2.2,0,0,0-2.18,1.9l-1.88,13.49A2.19,2.19,0,0,0,408.68,181.21Z" style="fill:#407BFF"></path><path d="M407.91,178.71l1.88-13.49a2.21,2.21,0,0,1,2.18-1.9h2.34a2.2,2.2,0,0,1,2.18,2.51l-1.88,13.48a2.2,2.2,0,0,1-2.18,1.9h-2.34A2.2,2.2,0,0,1,407.91,178.71Z" style="fill:#fff;opacity:0.30000000000000004"></path><path d="M412.45,168.11h2.34a.76.76,0,0,0,.74-.67l.25-2.34a.59.59,0,0,0-.6-.67h-2.35a.76.76,0,0,0-.74.67l-.24,2.34A.59.59,0,0,0,412.45,168.11Z" style="fill:#407BFF"></path><g style="opacity:0.5"><path d="M414.76,164.9a.49.49,0,0,1,.5.57.64.64,0,0,1-.62.56.5.5,0,0,1-.51-.56A.65.65,0,0,1,414.76,164.9Z"></path><path d="M414.59,166.51a.49.49,0,0,1,.5.56.64.64,0,0,1-.62.56.49.49,0,0,1-.5-.56A.64.64,0,0,1,414.59,166.51Z"></path><path d="M413,165.7a.51.51,0,0,1,.51.57.65.65,0,0,1-.63.56.49.49,0,0,1-.5-.56A.64.64,0,0,1,413,165.7Z"></path></g><polygon points="394.31 384.88 398.09 404.33 405.4 403.68 403.68 384.06 394.31 384.88" style="fill:#ffb573"></polygon><path d="M406.52,400.66a.21.21,0,0,1-.19-.13.19.19,0,0,1,.06-.22c.11-.1,2.6-2.33,4-2.22a1,1,0,0,1,.69.33.75.75,0,0,1,.17.85c-.24.52-1.24.92-2.24,1.12A13.1,13.1,0,0,1,406.52,400.66Zm.56-.39c1.54-.11,3.56-.54,3.83-1.16,0-.08.07-.21-.12-.42a.53.53,0,0,0-.42-.2,1.22,1.22,0,0,0-.38,0A9,9,0,0,0,407.08,400.27Z" style="fill:#407BFF"></path><path d="M406.41,400.67a.17.17,0,0,1-.11-.16c0-.1-.22-2.38.64-3.46a1.37,1.37,0,0,1,1-.55c.54-.06.75.18.81.4.35.9-1.24,3.09-2.12,3.73a.11.11,0,0,1-.07,0A.22.22,0,0,1,406.41,400.67Zm1.47-3.77a1,1,0,0,0-.62.38,4.9,4.9,0,0,0-.58,2.76c.88-.81,1.88-2.48,1.72-3,0-.05-.07-.19-.42-.15l-.1,0Z" style="fill:#407BFF"></path><path d="M405.48,399.67l-8.78,1.81a.75.75,0,0,0-.58.71l-.19,7.69a1.22,1.22,0,0,0,1.16,1.27l.25,0c3.15-.71,5.93-1.47,9.87-2.28,4.65-1,3.58-.14,9.06-1.18,3.3-.64,3.17-4.62,1.74-4.52-6.55.49-7.59-1.36-10.5-3.21A2.82,2.82,0,0,0,405.48,399.67Z" style="fill:#263238"></path><polygon points="396.87 398.04 394.31 384.88 403.68 384.06 404.72 395.93 396.87 398.04" style="opacity:0.2"></polygon><path d="M373,257.38s29.24,50.88,32.35,136l-9.94,2.32S382.26,349.56,382,334.44a15.51,15.51,0,0,0-2.19-7.86l-18.1-29.95a33.67,33.67,0,0,0-6.34-7.72c-3.86-3.43-10.37-15.32-11.09-30Z" style="fill:#407BFF"></path><path d="M373,257.38s29.24,50.88,32.35,136l-9.94,2.32S382.26,349.56,382,334.44a15.51,15.51,0,0,0-2.19-7.86l-18.1-29.95a33.67,33.67,0,0,0-6.34-7.72c-3.86-3.43-10.37-15.32-11.09-30Z" style="opacity:0.6000000000000001"></path><path d="M353.09,271.18l3.57-3.71,1.82,2.39s2.08,21.49,7.07,33.08l-3.82-6.31a33.37,33.37,0,0,0-6.33-7.72,29.28,29.28,0,0,1-5.7-7.06Z" style="opacity:0.1"></path><path d="M407.46,190.1l2.71-5.24s-1.08-2.86-.77-4.13,1-3.7,2-4.44c.43-.33,1.22-1.35,1.75-1.25,1.76.33,3.84,4.21,3.87,6,0,1.41-2.92,4.8-2.92,4.8l-2.87,7.34Z" style="fill:#ffb573"></path><path d="M365.9,196.67s-.33-.83,15,6.2c16.37,7.51,27.82-17.1,27.82-17.1l5.19,3s-7.91,20.66-19.64,23.8-21-1.06-27.06-4.3C364.55,206.85,362,204.4,365.9,196.67Z" style="fill:#407BFF"></path><path d="M365.9,196.67s-.33-.83,15,6.2c16.37,7.51,27.82-17.1,27.82-17.1l5.19,3s-7.91,20.66-19.64,23.8-21-1.06-27.06-4.3C364.55,206.85,362,204.4,365.9,196.67Z" style="fill:#fff;opacity:0.7000000000000001"></path><path d="M367.2,208.27a6.53,6.53,0,0,1-2.64-2.29l2.87-3.73,2.5,2.12s3.58,6.54,7.78,8.21A47.59,47.59,0,0,1,367.2,208.27Z" style="opacity:0.2"></path><path d="M297,209.2l-4-4.31s.27-3-.38-4.18-2-3.29-3.07-3.75c-.5-.2-1.55-1-2-.73-1.59.8-2.55,5.1-2.09,6.82.36,1.36,4.11,3.83,4.11,3.83l4.75,6.29Z" style="fill:#ffb573"></path><path d="M331.18,199.94s0-.91-12,11.28c-12.81,13-23.86-5.48-23.86-5.48l-3.83,4.72s6.26,16,18.51,14.77,19.55-8.59,24.1-13.83C336.13,209.09,337.71,205.84,331.18,199.94Z" style="fill:#407BFF"></path><path d="M331.18,199.94s0-.91-12,11.28c-12.81,13-23.86-5.48-23.86-5.48l-3.83,4.72s6.26,16,18.51,14.77,19.55-8.59,24.1-13.83C336.13,209.09,337.71,205.84,331.18,199.94Z" style="fill:#fff;opacity:0.7000000000000001"></path><path d="M334.13,211.4a6.53,6.53,0,0,0,1.67-3.13l-4.06-2.5-2.79-.65s.15,11-3.23,14.15A48,48,0,0,0,334.13,211.4Z" style="opacity:0.2"></path><path d="M354.31,195.65l-4-4.31s.26-3-.38-4.18-2-3.29-3.08-3.75c-.5-.2-1.55-1-2-.73-1.59.79-2.55,5.09-2.09,6.82.36,1.35,4.11,3.82,4.11,3.82l4.75,6.29Z" style="fill:#ffb573"></path><polygon points="345.79 390.21 349.52 409.67 356.83 409.03 355.16 389.42 345.79 390.21" style="fill:#ffb573"></polygon><path d="M357.54,408.14a.19.19,0,0,1-.15-.14.18.18,0,0,1,.08-.18c.11-.07,2.62-1.61,3.86-1.31a.9.9,0,0,1,.56.39.65.65,0,0,1,0,.75,3.07,3.07,0,0,1-2.13.63A13,13,0,0,1,357.54,408.14Zm.55-.25c1.37.13,3.22.06,3.54-.43.05-.06.09-.16,0-.38a.5.5,0,0,0-.35-.23.93.93,0,0,0-.33,0A8,8,0,0,0,358.09,407.89Z" style="fill:#407BFF"></path><path d="M357.45,408.13a.16.16,0,0,1-.09-.15c0-.09.15-2.08,1.06-2.87a1.28,1.28,0,0,1,.95-.33c.48,0,.64.27.66.47.18.82-1.53,2.46-2.39,2.88h-.07A.16.16,0,0,1,357.45,408.13Zm1.82-3a.9.9,0,0,0-.6.23,4.12,4.12,0,0,0-.9,2.28c.89-.57,2-1.85,2-2.34,0,0,0-.17-.36-.19l-.09,0Z" style="fill:#407BFF"></path><path d="M356.76,407.14l-8,.24a.65.65,0,0,0-.61.52l-1.25,6.55a1.08,1.08,0,0,0,.85,1.26.82.82,0,0,0,.22,0c2.88-.14,5.44-.37,9-.48,4.24-.13,3.18.41,8.16.33,3-.05,3.44-3.48,2.17-3.61-5.85-.55-6.51-2.29-8.82-4.3A2.52,2.52,0,0,0,356.76,407.14Z" style="fill:#263238"></path><polygon points="356.25 402.27 355.16 389.42 345.79 390.21 348.18 402.68 356.25 402.27" style="opacity:0.2"></polygon><path d="M360.16,260.9l-1.9,36.31s-2.46,31.88-2.63,42.57c-.23,14.55,2.15,58.13,2.15,58.13l-11.28,1.27s-6.75-36.21-6.75-57.5c0,0-3.5-27-4.79-52a61.52,61.52,0,0,1-2.24-26.7Z" style="fill:#407BFF"></path><path d="M360.16,260.9l-1.9,36.31s-2.46,31.88-2.63,42.57c-.23,14.55,2.15,58.13,2.15,58.13l-11.28,1.27s-6.75-36.21-6.75-57.5c0,0-3.5-27-4.79-52a61.52,61.52,0,0,1-2.24-26.7Z" style="opacity:0.6000000000000001"></path><polygon points="344.74 396.57 345.54 401.02 359.22 399.62 359.22 395.15 344.74 396.57" style="fill:#407BFF"></polygon><polygon points="344.74 396.57 345.54 401.02 359.22 399.62 359.22 395.15 344.74 396.57" style="fill:#fff;opacity:0.7000000000000001"></polygon><path d="M342.59,198.31c1.56-4.2-.27-12.3-1.71-16.43l10.33,6.52c-.37,3.69.54,7.87,5.41,8.7,0,0,.24,6.68-3.67,7.62S342.59,198.31,342.59,198.31Z" style="fill:#ffb573"></path><path d="M343.69,185.33l5.87,2,1.59,1a2.56,2.56,0,0,0,.05.27,12.21,12.21,0,0,0,0,2.18,8.09,8.09,0,0,1-6.75-2.26C343.36,187.36,343.22,185.7,343.69,185.33Z" style="opacity:0.2;isolation:isolate"></path><path d="M338.06,175.18c1.78,6.37,2.51,10.18,6.48,12.79,6,3.92,13.3-.77,13.45-7.52.13-6.13-2.82-15.49-9.69-16.69a9,9,0,0,0-10.24,11.42Z" style="fill:#ffb573"></path><path d="M348.56,174.86c.11.53.48.9.82.82s.53-.56.42-1.08-.49-.89-.83-.82S348.44,174.34,348.56,174.86Z" style="fill:#2e353a"></path><path d="M354.49,173.58c.12.53.48.89.83.82s.53-.56.41-1.08-.48-.9-.83-.82S354.38,173.06,354.49,173.58Z" style="fill:#2e353a"></path><path d="M352.33,174.26a19.52,19.52,0,0,0,3.48,3.94,3.13,3.13,0,0,1-2.41,1Z" style="fill:#ed893e"></path><path d="M346,172.84h-.16a.33.33,0,0,1-.15-.42,3.15,3.15,0,0,1,2.23-1.81.31.31,0,1,1,.1.62h0a2.52,2.52,0,0,0-1.76,1.46A.3.3,0,0,1,346,172.84Z" style="fill:#2e353a"></path><path d="M356.28,170.69a.31.31,0,0,1-.27-.12,2.54,2.54,0,0,0-2-1,.32.32,0,0,1-.34-.29.33.33,0,0,1,.29-.34,3.18,3.18,0,0,1,2.6,1.26.33.33,0,0,1,0,.44h0A.26.26,0,0,1,356.28,170.69Z" style="fill:#2e353a"></path><path d="M332.79,264l-4-59.41a5.27,5.27,0,0,1,4.82-5.63l30.86-2.61a5.28,5.28,0,0,1,5.71,4.81l5.21,60.3Z" style="fill:#407BFF"></path><path d="M332.79,264l-4-59.41a5.27,5.27,0,0,1,4.82-5.63l30.86-2.61a5.28,5.28,0,0,1,5.71,4.81l5.21,60.3Z" style="fill:#fff;opacity:0.7000000000000001"></path><path d="M369.15,262.11l-2.58.16a595.66,595.66,0,0,0-6.26-65.61l2.41-.21A557.55,557.55,0,0,1,369.15,262.11Z" style="fill:#263238"></path><path d="M345.06,263.55l-2.58.15a599.42,599.42,0,0,0-6.23-65l2.41-.2A559.57,559.57,0,0,1,345.06,263.55Z" style="fill:#263238"></path><polygon points="355.86 195.68 350.55 197.48 342.25 196.58 341.34 198.26 345.64 202.88 350.63 198.2 356.6 201.39 357.33 196.91 355.86 195.68" style="fill:#407BFF"></polygon><polygon points="355.86 195.68 350.55 197.48 342.25 196.58 341.34 198.26 345.64 202.88 350.63 198.2 356.6 201.39 357.33 196.91 355.86 195.68" style="fill:#fff;opacity:0.30000000000000004"></polygon><path d="M352,199.18l-2.27.25a.71.71,0,0,1-.25,0L345,198.12a.67.67,0,0,0-.84.73l.7,4.84a.65.65,0,0,0,1,.43l3.57-2.7a.58.58,0,0,1,.28-.12l2.61-.44a.62.62,0,0,1,.38,0l3.87,1.72a.66.66,0,0,0,.91-.75l-1.17-5a.65.65,0,0,0-1.06-.35L352.35,199A.73.73,0,0,1,352,199.18Z" style="fill:#263238"></path><path d="M340.09,178.83s3-2.48,1.71-8.14l2.52-4.62s12,.64,8-9.72c-4.28-11.08-10.57,4.23-13.29,6.23s-12.9,8.13-1.91,16.64Z" style="fill:#263238"></path><path d="M336.2,181.88a6.32,6.32,0,0,0,4.41,1.88c2.21,0,2.73-2.1,1.63-3.88-1-1.59-3.33-3.52-5.31-2.68A2.82,2.82,0,0,0,336.2,181.88Z" style="fill:#ffb573"></path><path d="M348.82,164.87s6.05-3,6.21.94S354,163.39,348.82,164.87Z" style="fill:#263238"></path><path d="M353.33,182.3a5.06,5.06,0,0,0,.93-.17.17.17,0,0,0,.14-.21h0a.2.2,0,0,0-.24-.13,5.07,5.07,0,0,1-4.49-.9.19.19,0,1,0-.26.28A5.24,5.24,0,0,0,353.33,182.3Z" style="fill:#263238"></path><polygon points="388.68 393.41 389.97 397.55 402.82 394.57 402.28 390.32 388.68 393.41" style="fill:#407BFF"></polygon><polygon points="388.68 393.41 389.97 397.55 402.82 394.57 402.28 390.32 388.68 393.41" style="fill:#fff;opacity:0.7000000000000001"></polygon></g><g id="freepik--character-1--inject-63"><path d="M143.44,165s-3.14-4.88-5.84-1.29-2,10.13-2,10.13Z" style="fill:#263238"></path><polygon points="97.41 389.09 94.94 403.88 101.66 407.05 105.93 391.32 97.41 389.09" style="fill:#eec1bb"></polygon><path d="M94.76,401.76l8.07,1.94a.67.67,0,0,1,.51.66l-.12,6.92a1.12,1.12,0,0,1-1.12,1.1l-.24,0c-2.89-.75-5.44-1.53-9.06-2.4-4.28-1-3.32-.26-8.36-1.4-3-.68-2.76-4.26-1.44-4.12,6.06.68,7.09-.95,9.87-2.51A2.68,2.68,0,0,1,94.76,401.76Z" style="fill:#263238"></path><path d="M149,261.14c-1.71,22.93-4.92,22.2-10.34,27.82-.07.08-.16.16-.23.25-2.42,2.8-5.73,10.94-8.2,17.67a.33.33,0,0,1,0,.06c-2,5.45-3.46,9.95-3.46,9.95s-6.49,15.7-6.81,20.27c-1.36,18.94-15.3,61.41-15.3,61.41l-9.38-2.35c9.24-70.4,24.06-137.82,24.06-137.82Z" style="fill:#263238"></path><path d="M138.43,289.21c-2.42,2.8-5.73,10.94-8.2,17.67a.33.33,0,0,1,0,.06c-.17.37-.34.74-.5,1.11,3-17,5.29-27.41,5.29-27.41l3.12,1.19Z" style="opacity:0.5"></path><polygon points="139.32 390.61 140.18 408.57 147.25 408.57 148.64 392.83 139.32 390.61" style="fill:#eec1bb"></polygon><path d="M139.93,407.21l8.08.43a.64.64,0,0,1,.62.49l1.26,6a1,1,0,0,1-.85,1.12l-.23,0c-2.91-.21-5.5-.49-9.12-.68-4.28-.22-3.21.29-8.25.09-3-.13-3.48-3.26-2.19-3.34,5.91-.36,6.57-1.92,8.91-3.7A2.72,2.72,0,0,1,139.93,407.21Z" style="fill:#263238"></path><path d="M135.76,257.38a828.88,828.88,0,0,0-.41,83.05c2.15,42.39,3.42,59.68,3.42,59.68L149,401s3.78-40.08,2.33-57.36a59,59,0,0,1,.5-13.67c1.58-10.52,5.4-36.94,6.9-43.37,2.44-10.4,1.34-26.14,1.34-26.14Z" style="fill:#263238"></path><path d="M100.45,159l-.93-8.91-.69-5.56a2.77,2.77,0,0,1,2.31-3.09l1.29-.21a2.78,2.78,0,0,1,1.91.38l.86.54a2.78,2.78,0,0,1,1.3,2.69l-.35,2.87a2.59,2.59,0,0,1-.27.91l-1.53,3.07L105.7,158Z" style="fill:#eec1bb"></path><path d="M105,145.51v-3.3c2.08-.56,3.69-3.66,3.69-8.78a21.46,21.46,0,0,0-.64-5.31h-7.46a22,22,0,0,0-.63,5.31c0,5.12,1.6,8.22,3.69,8.78v7l-3.68,1s3.26.51,4.35.51,4.36-.51,4.36-.51l-3.68-1Z" style="fill:#407BFF"></path><path d="M105,145.51v-3.3c2.08-.56,3.69-3.66,3.69-8.78a21.46,21.46,0,0,0-.64-5.31h-7.46a22,22,0,0,0-.63,5.31c0,5.12,1.6,8.22,3.69,8.78v7l-3.68,1s3.26.51,4.35.51,4.36-.51,4.36-.51l-3.68-1Z" style="fill:#fff;opacity:0.6000000000000001"></path><path d="M107.62,133.43c0-1.07-.08-3.51-.22-5.31h-6.23c-.15,1.8-.22,4.24-.22,5.31,0,5.16,1.68,7.86,3.33,7.86S107.62,138.59,107.62,133.43Z" style="fill:#fff;opacity:0.5"></path><path d="M104.28,136.25a6.94,6.94,0,0,0-3.16-.29c.45,3.49,1.81,5.33,3.16,5.33s2.64-1.73,3.13-5A6,6,0,0,1,104.28,136.25Z" style="fill:#407BFF"></path><path d="M104.28,136.25a6.94,6.94,0,0,0-3.16-.29c.45,3.49,1.81,5.33,3.16,5.33s2.64-1.73,3.13-5A6,6,0,0,1,104.28,136.25Z" style="opacity:0.30000000000000004"></path><path d="M181.72,144.53v-3.31c2.09-.55,3.69-3.66,3.69-8.78a21.48,21.48,0,0,0-.63-5.31h-7.46a21.48,21.48,0,0,0-.63,5.31c0,5.12,1.6,8.23,3.69,8.78v7l-3.69,1s3.26.52,4.36.52,4.35-.52,4.35-.52l-3.68-1Z" style="fill:#407BFF"></path><path d="M181.72,144.53v-3.31c2.09-.55,3.69-3.66,3.69-8.78a21.48,21.48,0,0,0-.63-5.31h-7.46a21.48,21.48,0,0,0-.63,5.31c0,5.12,1.6,8.23,3.69,8.78v7l-3.69,1s3.26.52,4.36.52,4.35-.52,4.35-.52l-3.68-1Z" style="fill:#fff;opacity:0.6000000000000001"></path><path d="M184.38,132.44c0-1.06-.07-3.51-.21-5.31h-6.24c-.14,1.8-.22,4.24-.22,5.31,0,5.16,1.68,7.87,3.34,7.87S184.38,137.6,184.38,132.44Z" style="fill:#fff;opacity:0.5"></path><path d="M181.05,135.26a7.13,7.13,0,0,0-3.17-.29c.46,3.5,1.81,5.34,3.17,5.34s2.63-1.74,3.12-5A6,6,0,0,1,181.05,135.26Z" style="fill:#407BFF"></path><path d="M181.05,135.26a7.13,7.13,0,0,0-3.17-.29c.46,3.5,1.81,5.34,3.17,5.34s2.63-1.74,3.12-5A6,6,0,0,1,181.05,135.26Z" style="opacity:0.30000000000000004"></path><path d="M185.76,157.86l-.17-9V143.3a2.79,2.79,0,0,0-2.67-2.78l-1.31-.05a2.76,2.76,0,0,0-1.85.62l-.79.63a2.78,2.78,0,0,0-.95,2.83l.69,2.81a2.73,2.73,0,0,0,.39.87l1.89,2.86-.56,6.48Z" style="fill:#eec1bb"></path><path d="M162.31,195.68c4.94-1.41,13-12,14.15-16.64s3-23.79,3-23.79l7.55.56s.28,24.6-1.71,30.85S168.87,211.29,162,208.81,158.67,196.71,162.31,195.68Z" style="fill:#407BFF"></path><path d="M175.7,200.77c-8,7.37-11.83,2.36-11.83,2.36l-1.9.76-1.18,4.33a5.41,5.41,0,0,0,1.18.59C165.47,210.07,170.92,206,175.7,200.77Z" style="opacity:0.1"></path><path d="M126.2,193.4s-6.27-2.52-12.44-15.14c-4.6-9.41-7.61-23.53-7.61-23.53l-7.34,1.46s2,21.23,6.52,29.52,9,16.95,15.72,21.54C124.08,209.31,133.07,212.28,126.2,193.4Z" style="fill:#407BFF"></path><path d="M122.68,201.69c-1.85,4.47-10.49-1.87-11.07-2.31a81.44,81.44,0,0,0,9.44,7.87,9.87,9.87,0,0,0,2.11,1.14C123.56,204.12,123.9,198.73,122.68,201.69Z" style="opacity:0.1"></path><path d="M135.05,196.34l-.81,12.47,3.68,1.27,5-.79s8.37-12.09,8.1-12.11c-3.77-.31-1.47-9.64,0-13.83L140.49,190C140.86,193.54,138,196.64,135.05,196.34Z" style="fill:#eec1bb"></path><path d="M149,187.49h-2.5l-2.74.39-1.38.87L140.49,190a6,6,0,0,1-.66,3.42C146.26,193.83,149,187.49,149,187.49Z" style="opacity:0.1"></path><path d="M153.82,176.57c-1.81,6.45-2.55,10.31-6.57,12.94-6.05,4-13.47-.77-13.62-7.61-.13-6.2,2.86-15.68,9.81-16.9a9.14,9.14,0,0,1,10.38,11.57Z" style="fill:#eec1bb"></path><path d="M142.65,176.21c-.12.54-.49.91-.84.83s-.54-.56-.42-1.1.49-.9.84-.82S142.76,175.69,142.65,176.21Z" style="fill:#263238"></path><path d="M137.18,175c-.12.53-.49.9-.84.82s-.54-.56-.42-1.09.49-.91.84-.83S137.29,174.42,137.18,175Z" style="fill:#263238"></path><path d="M139,175.63a19.52,19.52,0,0,1-3.53,4,3.18,3.18,0,0,0,2.44,1Z" style="fill:#d4827d"></path><path d="M145.25,174.17a.49.49,0,0,0,.17,0,.34.34,0,0,0,.15-.43,3.24,3.24,0,0,0-2.26-1.84.32.32,0,0,0-.1.64h0A2.52,2.52,0,0,1,145,174,.33.33,0,0,0,145.25,174.17Z" style="fill:#263238"></path><path d="M135.36,172a.32.32,0,0,0,.28-.12,2.54,2.54,0,0,1,2.05-1,.32.32,0,0,0,.34-.29.32.32,0,0,0-.29-.35,3.2,3.2,0,0,0-2.63,1.28.33.33,0,0,0,0,.44h0A.26.26,0,0,0,135.36,172Z" style="fill:#263238"></path><path d="M150.5,196.77c-2.1,2.17-8,8-10.48,7.79s-3.82-6.48-4.2-8.54a93.59,93.59,0,0,0-12.44-1.75l-3.45,65.52L160,261.63l5-66S157.56,195.92,150.5,196.77Z" style="fill:#407BFF"></path><path d="M150.5,196.77c-2.1,2.17-8,8-10.48,7.79s-3.82-6.48-4.2-8.54a93.59,93.59,0,0,0-12.44-1.75l-3.45,65.52,38.3,2.26L165,195.62S157.56,195.92,150.5,196.77Z" style="fill:#fff;opacity:0.7000000000000001"></path><path d="M116.29,273.47l13.41,1,4.54-67.95-1.17-11.17c-5.55-1.29-10.89-2.77-10.89-2.77Z" style="fill:#407BFF"></path><path d="M146.57,207.47l-2.33,67,16.27,1.27,4.53-80.1a98.78,98.78,0,0,0-12.24.85Z" style="fill:#407BFF"></path><path d="M154.19,199.38s-3.17,17.74-.84,34.71l-2.89,2.7-2.33-4.7s2.52-14.69,2.85-20.47,1.31-12.86,1.31-12.86Z" style="fill:#407BFF"></path><path d="M154.19,199.38s-3.17,17.74-.84,34.71l-2.89,2.7-2.33-4.7s2.52-14.69,2.85-20.47,1.31-12.86,1.31-12.86Z" style="opacity:0.5"></path><polygon points="152.01 196.6 153.89 195.31 155.24 196.13 155.56 204.9 150.97 202.51 149.01 202.72 152.01 196.6" style="fill:#407BFF"></polygon><polygon points="152.01 196.6 153.89 195.31 155.24 196.13 155.56 204.9 150.97 202.51 149.01 202.72 152.01 196.6" style="fill:#fff;opacity:0.2"></polygon><path d="M131.72,198.76s-.4,16.26-1.46,30S128,254.45,128,254.45h-2.31s2.79-22.79,3-29.5,1.58-26.19,1.58-26.19Z" style="fill:#407BFF"></path><path d="M131.72,198.76s-.4,16.26-1.46,30S128,254.45,128,254.45h-2.31s2.79-22.79,3-29.5,1.58-26.19,1.58-26.19Z" style="opacity:0.5"></path><polygon points="133.63 201.88 130.4 200.77 126.9 201.88 130.5 194.63 132.56 194.82 133.29 195.31 133.63 201.88" style="fill:#407BFF"></polygon><polygon points="133.63 201.88 130.4 200.77 126.9 201.88 130.5 194.63 132.56 194.82 133.29 195.31 133.63 201.88" style="fill:#fff;opacity:0.2"></polygon><path d="M179.48,155.25l7.55.56s0,1.52,0,3.9l-7.89-.76Z" style="fill:#fff;opacity:0.30000000000000004"></path><path d="M106.85,157.43l-7.67,2.11c-.25-2.06-.37-3.35-.37-3.35l7.34-1.46S106.4,155.74,106.85,157.43Z" style="fill:#fff;opacity:0.30000000000000004"></path><path d="M136.55,182.86a44.88,44.88,0,0,1,8.56-.56c-.72,1.91-2.1,3.44-5.33,3.46a2.94,2.94,0,0,1-3.22-2.64A2.35,2.35,0,0,1,136.55,182.86Z" style="fill:#263238"></path><path d="M141.26,184.23a5.94,5.94,0,0,0-3.52,1,3.46,3.46,0,0,0,2,.55,5.82,5.82,0,0,0,3.51-.94A3.44,3.44,0,0,0,141.26,184.23Z" style="fill:#9d2724"></path><path d="M136.84,182.8a1.3,1.3,0,0,0,1,.94,35,35,0,0,0,5.59-.51,1.85,1.85,0,0,0,1.41-.94A52,52,0,0,0,136.84,182.8Z" style="fill:#fff"></path><path d="M137.08,166.79c.31-.64,2.53-.9,3.21-.7a1.55,1.55,0,0,1,1.07,1.63,7.18,7.18,0,0,1,3.09-1.12,3.69,3.69,0,0,1,3,1.1,4.84,4.84,0,0,1,.77,3.84,16.42,16.42,0,0,0-.43,4,5.52,5.52,0,0,0,3.33,4.66,2,2,0,0,1,.15,1.62,7.28,7.28,0,0,1-.6,1.45,12.68,12.68,0,0,0-1.21,5.17c1.36-2.22,4.26-4.76,6.07-6.64a4.87,4.87,0,0,0,3.28.4,1,1,0,0,1-.84-.28c.41-.09.74-.06,1.15-.15a4,4,0,0,1-1.93-3.29,16,16,0,0,1,.41-3.95c.22-1.31.64-7.76-3.43-10.73-1.84-1.33-5.38-2.31-7.55-1.68-3.93-3.14-8.2.2-9,1.6C137,164.69,137.26,165.67,137.08,166.79Z" style="fill:#263238"></path><path d="M155.69,183.35a6.41,6.41,0,0,1-4.46,1.91c-2.24,0-2.37-2.43-1.65-3.93.83-1.71,3.38-3.57,5.38-2.72A2.85,2.85,0,0,1,155.69,183.35Z" style="fill:#eec1bb"></path></g><g id="freepik--characters-2-and-3--inject-63"><path d="M235.48,218.63c5.47-.35,12.07-6.56,21.3-8s22.89-.92,22.89-.92l.61-5.54a2.17,2.17,0,0,0-1.77-2.37c-4.76-.87-16.9-2.84-23.67-1.76-8.55,1.37-19.41,4.09-23.89,8.24C228.87,210.16,226.32,219.22,235.48,218.63Z" style="fill:#407BFF"></path><path d="M235.48,218.63c5.47-.35,12.07-6.56,21.3-8s22.89-.92,22.89-.92l.61-5.54a2.17,2.17,0,0,0-1.77-2.37c-4.76-.87-16.9-2.84-23.67-1.76-8.55,1.37-19.41,4.09-23.89,8.24C228.87,210.16,226.32,219.22,235.48,218.63Z" style="fill:#fff;opacity:0.7000000000000001"></path><path d="M204.22,234.7l-4.75-3.41s-4.52-8.14-7.64-5.73l-.61,7.06s2.82,5.86,6.5,4.15l4.7,3Z" style="fill:#eec1bb"></path><path d="M251.85,207.14s-5-1-11.82,9.06-18.81,28.63-38.81,14.92l-2.5,7.94a31,31,0,0,0,26.63,4.47c15.53-4.46,23.34-22.12,23.34-22.12Z" style="fill:#407BFF"></path><path d="M191.16,224.45a3,3,0,0,1,3.12,3.06c0,3.1,2.51,6.54,0,7.85S187,229.13,191.16,224.45Z" style="fill:#eec1bb"></path><path d="M248.48,210.92l1.61,4.18-1.4,6.31A49.42,49.42,0,0,1,235.82,238c7.5-9,9.72-25.18,9.72-25.18Z" style="opacity:0.2"></path><path d="M177,177.32l-2.57-8.08s.43-7.46-1-8.74c-.88-.8-3.63.42-4.74,0s-.89-1.74-2.19-1.49c-.76.15-1.68,1.73-1.88,2.48-.58,2.19-.42,5,1.19,6.62,1,1,4.4,1.88,4.4,1.88l.65,9.5Z" style="fill:#ce7a63"></path><polygon points="217.17 392.27 214.98 414.6 208.17 414.52 208.22 391.85 217.17 392.27" style="fill:#ce7a63"></polygon><polygon points="208.22 391.85 217.17 392.27 215.85 405.75 208.19 405.05 208.22 391.85" style="opacity:0.1"></polygon><path d="M205,410a3,3,0,0,1-2-.74.63.63,0,0,1,.08-.73.86.86,0,0,1,.57-.33c1.21-.21,3.52,1.45,3.62,1.52a.16.16,0,0,1,.06.18.18.18,0,0,1-.15.13A12.1,12.1,0,0,1,205,410Zm-1-1.48a1.15,1.15,0,0,0-.32,0,.46.46,0,0,0-.35.2c-.15.19-.11.3-.07.36.28.49,2.05.68,3.38.66A7.87,7.87,0,0,0,204,408.5Z" style="fill:#407BFF"></path><path d="M207.15,410a.08.08,0,0,1-.07,0c-.8-.46-2.34-2.16-2.11-2.94,0-.19.21-.4.67-.4a1.23,1.23,0,0,1,.9.38,4.78,4.78,0,0,1,.81,2.83.16.16,0,0,1-.09.15A.14.14,0,0,1,207.15,410Zm-1.43-3-.09,0c-.31,0-.34.11-.36.15-.09.47.9,1.78,1.72,2.39a3.89,3.89,0,0,0-.72-2.26.82.82,0,0,0-.55-.26Z" style="fill:#407BFF"></path><path d="M208,409.1l7.68.79a.63.63,0,0,1,.56.54l.74,6.39a1,1,0,0,1-.9,1.16h-.22c-2.76-.33-5.21-.74-8.65-1.09-4.07-.42-3.09.18-7.88-.25-2.88-.26-3.07-3.59-1.84-3.62,5.67-.13,6.42-1.76,8.79-3.54A2.49,2.49,0,0,1,208,409.1Z" style="fill:#263238"></path><polygon points="172.88 387.6 168.48 409.6 161.71 408.84 164.01 386.29 172.88 387.6" style="fill:#ce7a63"></polygon><polygon points="164.01 386.29 172.88 387.6 169.94 402.31 162.44 401.73 164.01 386.29" style="opacity:0.1"></polygon><path d="M158.29,405.65a3.44,3.44,0,0,1-2.2-.78.64.64,0,0,1,.1-.76,1,1,0,0,1,.61-.35c1.32-.21,3.84,1.52,3.95,1.59a.17.17,0,0,1,.07.19.18.18,0,0,1-.16.13A14.43,14.43,0,0,1,158.29,405.65Zm-1.07-1.55a1.37,1.37,0,0,0-.35,0,.48.48,0,0,0-.38.21c-.16.2-.13.31-.08.37.3.52,2.24.72,3.69.69A8.59,8.59,0,0,0,157.22,404.1Z" style="fill:#407BFF"></path><path d="M160.63,405.67a.1.1,0,0,1-.07,0c-.88-.48-2.55-2.25-2.3-3.06,0-.2.22-.43.73-.42a1.37,1.37,0,0,1,1,.39c.89.87.89,2.87.89,3a.18.18,0,0,1-.1.15Zm-1.55-3.16-.11,0c-.33,0-.36.12-.38.16-.1.49,1,1.86,1.87,2.49a4,4,0,0,0-.78-2.35,1,1,0,0,0-.6-.28Z" style="fill:#407BFF"></path><path d="M161.56,404.72l8.38.83a.66.66,0,0,1,.6.57l.81,6.67a1.08,1.08,0,0,1-1,1.2h-.24c-3-.35-5.68-.78-9.44-1.14-4.44-.44-3.37.18-8.6-.26-3.15-.27-3.35-3.75-2-3.79,6.18-.13,7-1.83,9.58-3.69A2.84,2.84,0,0,1,161.56,404.72Z" style="fill:#263238"></path><path d="M192.56,268.3s-16.62,33.35-22.46,61.75-8.92,67.38-8.92,67.38l10.57,1.2s6.2-24.21,9.89-44.77c1.41-7.87,1.13-15.28,2.5-19.9,1.52-5.1,3.77-7.83,9.64-18.14,9.17-16.11,23.93-32.79,20-46Z" style="fill:#407BFF"></path><path d="M206.6,279.72l4.93,6.36c-3.23,7.33-8.66,15.1-13.59,22.89C203.42,296.25,206.6,279.72,206.6,279.72Z" style="opacity:0.1"></path><path d="M229.26,271.69l-8.08,75.91c1.68,15.34-1.27,34.4-3.88,54.6l-9.63-1.28s-2.83-26.12-3-51.77c-.08-12.27,1.2-80.85,1.2-80.85Z" style="fill:#407BFF"></path><polygon points="219.84 399.68 218.83 403.95 206.1 402.54 206.36 398.36 219.84 399.68" style="fill:#407BFF"></polygon><polygon points="173.62 396.47 172.61 400.74 159.89 399.33 160.15 395.15 173.62 396.47" style="fill:#407BFF"></polygon><path d="M202,205.55s-11-2.72-16.54-9.29-7.92-23.2-7.92-23.2l-7.59,2.17s2.55,22.22,7.89,29.39c5.6,7.54,18.7,14.15,18.7,14.15Z" style="fill:#407BFF"></path><path d="M202,205.55s-11-2.72-16.54-9.29-7.92-23.2-7.92-23.2l-7.59,2.17s2.55,22.22,7.89,29.39c5.6,7.54,18.7,14.15,18.7,14.15Z" style="fill:#fff;opacity:0.7000000000000001"></path><path d="M170.9,175l1.65-.47,1.52,9.9a.91.91,0,0,1-.69,1h0a.9.9,0,0,1-1.1-.76Z" style="opacity:0.1"></path><g style="opacity:0.1"><path d="M196.51,218.77a85.19,85.19,0,0,1-7.93-4.69c5,3,7.62-4.19,7.62-4.19l2.52-3.41,1.71,2.79Z"></path><path d="M187.35,213.23l.54.38Z"></path></g><path d="M223.28,192.73c-1.39,4-3.23,11-1.72,15a2.21,2.21,0,0,1-.86,2.63,15.18,15.18,0,0,1-10.52,2.79c-4.78-.52-4.74-3.12-3.52-5a2.11,2.11,0,0,1,1.43-.94c4.7-.8,5.58-4.7,5.22-8.26Z" style="fill:#ce7a63"></path><path d="M219.22,195.31l-5.91,3.7a16.37,16.37,0,0,1,0,2.62,7.26,7.26,0,0,0,5.91-3.36C219.91,197,219.71,195.54,219.22,195.31Z" style="opacity:0.2;isolation:isolate"></path><path d="M226,186.26c-1.72,6.15-2.42,9.83-6.26,12.34-5.76,3.79-12.83-.74-13-7.26-.13-5.91,2.72-14.94,9.35-16.1a8.7,8.7,0,0,1,10.1,7A8.6,8.6,0,0,1,226,186.26Z" style="fill:#ce7a63"></path><path d="M215.87,186c-.11.51-.46.86-.8.79s-.51-.54-.4-1.05.47-.86.8-.78S216,185.46,215.87,186Z" style="fill:#2e353a"></path><path d="M210.15,184.72c-.12.51-.47.86-.8.79s-.51-.54-.4-1,.46-.86.8-.79S210.26,184.21,210.15,184.72Z" style="fill:#2e353a"></path><path d="M211.81,185.37a18.49,18.49,0,0,1-3.36,3.81,3,3,0,0,0,2.33,1Z" style="fill:#ba4d3c"></path><path d="M218.36,184a.38.38,0,0,0,.15,0,.33.33,0,0,0,.15-.41,3,3,0,0,0-2.16-1.75.3.3,0,1,0-.09.6h0a2.41,2.41,0,0,1,1.69,1.41A.34.34,0,0,0,218.36,184Z" style="fill:#2e353a"></path><path d="M208.42,181.93a.27.27,0,0,0,.26-.12,2.42,2.42,0,0,1,1.95-1,.31.31,0,1,0,.05-.61,3,3,0,0,0-2.5,1.22.31.31,0,0,0,0,.42h0A.26.26,0,0,0,208.42,181.93Z" style="fill:#2e353a"></path><path d="M208.84,191.8a46,46,0,0,1,7.52,1.42c-.92,1.25-2.35,2.1-5.14,1.4S208.84,191.8,208.84,191.8Z" style="fill:#2e353a"></path><path d="M209.1,191.82c.1.34.1,1.23.67,1.48a35.68,35.68,0,0,0,4.91.82c.52.06,1-.55,1.44-1A55.74,55.74,0,0,0,209.1,191.82Z" style="fill:#fff"></path><path d="M223.5,191.46a4.41,4.41,0,0,1,4.74-1.87c.68-2,1.29-4,2-6a5.77,5.77,0,0,0,.46-3.05,3.86,3.86,0,0,0-2.22-2.53,11.36,11.36,0,0,0-3.37-.85C225,179,223,188.41,223.5,191.46Z" style="fill:#2e353a"></path><path d="M220.75,173.9a9.4,9.4,0,0,0-7-1.16,5.14,5.14,0,0,0-2.81,1.51,2.77,2.77,0,0,0-.46,3,1.9,1.9,0,0,0,2.76.63,25.57,25.57,0,0,1,4.46.18,6.66,6.66,0,0,1,3.41,1.27,2.68,2.68,0,0,1,.78,3.29A4.06,4.06,0,0,0,227,181.3a4.69,4.69,0,0,0-.4-5.29A7.36,7.36,0,0,0,220.75,173.9Z" style="fill:#2e353a"></path><path d="M227.79,192.73a6.07,6.07,0,0,1-4.25,1.81c-2.13,0-2.64-2-1.57-3.74.95-1.54,3.21-3.4,5.12-2.59A2.72,2.72,0,0,1,227.79,192.73Z" style="fill:#ce7a63"></path><path d="M236,213.61l-5.29,66.26-42-3.46,3.71-12.71L196,207.56a3,3,0,0,1,4-2.63c5.91,1.94,19.24,2.66,33.72,1.37C238,205.91,236.16,211.6,236,213.61Z" style="fill:#407BFF"></path><path d="M236,213.61l-5.29,66.26-42-3.46,3.71-12.71L196,207.56a3,3,0,0,1,4-2.63c5.91,1.94,19.24,2.66,33.72,1.37C238,205.91,236.16,211.6,236,213.61Z" style="fill:#fff;opacity:0.7000000000000001"></path><path d="M217.83,209s-4.12,1.76-7-1l-.87.78,1.41,3.42-.22,1.64s-6.53,25.67-8,45.85l1.82,5.94,4.86-4.3s.37-26.79,4-47l.43-1.48,4.35-2.69Z" style="fill:#263238"></path><polygon points="209.66 209.99 207.99 207.02 211.65 204.78 214.93 206.95 221.4 205.61 223.02 208.29 218.13 211.19 216.77 208.48 214.19 209.08 212.45 207.98 209.66 209.99" style="fill:#407BFF"></polygon><polygon points="209.66 209.99 207.99 207.02 211.65 204.78 214.93 206.95 221.4 205.61 223.02 208.29 218.13 211.19 216.77 208.48 214.19 209.08 212.45 207.98 209.66 209.99" style="fill:#fff;opacity:0.4"></polygon><path d="M168.12,164.28v-2.87c-1.81-.47-3.2-3.17-3.2-7.61a18.42,18.42,0,0,1,.55-4.6h6.47a18.42,18.42,0,0,1,.55,4.6c0,4.44-1.39,7.14-3.2,7.61v6.07l3.19.84s-2.82.44-3.78.44-3.77-.44-3.77-.44l3.19-.84Z" style="fill:#407BFF"></path><path d="M168.12,164.28v-2.87c-1.81-.47-3.2-3.17-3.2-7.61a18.42,18.42,0,0,1,.55-4.6h6.47a18.42,18.42,0,0,1,.55,4.6c0,4.44-1.39,7.14-3.2,7.61v6.07l3.19.84s-2.82.44-3.78.44-3.77-.44-3.77-.44l3.19-.84Z" style="fill:#fff;opacity:0.6000000000000001"></path><path d="M165.81,153.8c0-.93.07-3.05.19-4.6h5.41c.12,1.55.19,3.67.19,4.6,0,4.48-1.46,6.82-2.89,6.82S165.81,158.28,165.81,153.8Z" style="fill:#fff;opacity:0.5"></path><path d="M168.71,156.25a6,6,0,0,1,2.74-.25c-.39,3-1.57,4.62-2.74,4.62s-2.29-1.5-2.72-4.36A5.3,5.3,0,0,0,168.71,156.25Z" style="fill:#407BFF"></path><path d="M168.71,156.25a6,6,0,0,1,2.74-.25c-.39,3-1.57,4.62-2.74,4.62s-2.29-1.5-2.72-4.36A5.3,5.3,0,0,0,168.71,156.25Z" style="opacity:0.30000000000000004"></path><polygon points="307.56 379.81 313.45 409.81 306.95 412.27 297.8 382.61 307.56 379.81" style="fill:#eec1bb"></polygon><polygon points="303.96 402.57 297.8 382.61 307.56 379.81 311.54 400.1 303.96 402.57" style="opacity:0.1"></polygon><path d="M313.47,405.07a.16.16,0,0,1-.18-.07.17.17,0,0,1,0-.19c.08-.1,1.75-2.4,3-2.59a1,1,0,0,1,.64.14.62.62,0,0,1,.31.66c-.11.47-.87,1-1.67,1.35A12.5,12.5,0,0,1,313.47,405.07Zm.4-.42c1.27-.4,2.89-1.14,3-1.69,0-.07,0-.18-.18-.32a.42.42,0,0,0-.39-.08,1.11,1.11,0,0,0-.31.09A7.91,7.91,0,0,0,313.87,404.65Z" style="fill:#407BFF"></path><path d="M313.39,405.1a.16.16,0,0,1-.13-.11,4.75,4.75,0,0,1-.12-2.94,1.23,1.23,0,0,1,.73-.65c.44-.14.67,0,.76.18.46.66-.46,2.76-1.07,3.45a.15.15,0,0,1-.07,0A.12.12,0,0,1,313.39,405.1Zm.51-3.36a.84.84,0,0,0-.44.43,3.88,3.88,0,0,0,0,2.36c.59-.83,1.11-2.38.87-2.8,0,0-.09-.14-.38,0l-.08.05Z" style="fill:#407BFF"></path><path d="M312.41,404.47l-7,3.16a.62.62,0,0,0-.36.69l1.31,6.31a1,1,0,0,0,1.21.81l.21-.07c2.52-1.18,4.71-2.34,7.87-3.76,3.73-1.67,3-.8,7.4-2.71,2.66-1.15,1.79-4.37.61-4-5.42,1.66-6.65.36-9.45-.59A2.44,2.44,0,0,0,312.41,404.47Z" style="fill:#263238"></path><path d="M288.91,262.49l22.53,132.9-9.8,2.27s-14.87-35.18-16.06-59.6l-16-48.42a35.55,35.55,0,0,1-9.52-25.07Z" style="fill:#263238"></path><path d="M270.41,282.85l5.33-1.33s3.94,26.92,5.62,43.78l-9.22-27.9a19.82,19.82,0,0,1-4.74-4.7Z" style="opacity:0.4"></path><polygon points="313.07 396.67 301.13 399.69 299.71 395.58 312.74 392.28 313.07 396.67" style="fill:#263238"></polygon><polygon points="254.04 385.9 241.57 409.81 235.61 408.31 244.17 382.39 254.04 385.9" style="fill:#eec1bb"></polygon><polygon points="238.46 399.68 244.17 382.39 254.04 385.9 245.56 402.17 238.46 399.68" style="opacity:0.1"></polygon><path d="M244.27,407.25a.18.18,0,0,1-.1-.17.16.16,0,0,1,.12-.15c.12,0,2.86-.8,3.92-.2a.89.89,0,0,1,.42.51.63.63,0,0,1-.16.71,3,3,0,0,1-2.15,0A12.15,12.15,0,0,1,244.27,407.25Zm.58-.09c1.23.48,3,.9,3.4.53.06,0,.13-.13.06-.36A.49.49,0,0,0,248,407a1,1,0,0,0-.3-.11A7.63,7.63,0,0,0,244.85,407.16Z" style="fill:#407BFF"></path><path d="M244.18,407.22a.17.17,0,0,1,0-.17c0-.08.68-1.89,1.73-2.39a1.26,1.26,0,0,1,1-.05c.44.16.52.42.49.61,0,.81-2.07,1.88-3,2a.09.09,0,0,1-.07,0A.2.2,0,0,1,244.18,407.22Zm2.49-2.33a.89.89,0,0,0-.62.07,3.85,3.85,0,0,0-1.43,1.87c1-.29,2.35-1.18,2.42-1.66,0,0,0-.16-.28-.26l-.09,0Z" style="fill:#407BFF"></path><path d="M243.81,406.11l-7.49-1.88a.63.63,0,0,0-.71.33l-2.88,5.75a1,1,0,0,0,.45,1.39l.21.08c2.71.63,5.14,1.08,8.5,1.93,4,1,2.85,1.22,7.49,2.45,2.8.74,4.12-2.32,3-2.78-5.29-2.05-5.44-3.84-7-6.32A2.5,2.5,0,0,0,243.81,406.11Z" style="fill:#263238"></path><path d="M274.7,264.8s11,67.63-25.91,133l-9.49-3.41s8.7-36.15,14.36-50.27a34.64,34.64,0,0,0,2.39-14.49s-2.62-33.25-3.2-37c-2-12.8-3.25-19.57-2.09-27.66Z" style="fill:#263238"></path><polygon points="249.29 400 237.71 395.81 238.84 391.61 251.48 396.19 249.29 400" style="fill:#263238"></polygon><path d="M323.27,208.22l4.68-8.47s-2.57-5.56-1.59-7.08c.83-1.27,4.49-.77,5.94-1.21s4.29-2.94,5.54-2.14c1.86,1.18,1.29,6.7.59,8.79a7.56,7.56,0,0,1-2.57,3,11.52,11.52,0,0,1-2.77.55l-5,9.3Z" style="fill:#eec1bb"></path><polygon points="327.62 201.86 336.01 201.86 337.19 184.35 326.43 184.35 327.62 201.86" style="fill:#407BFF"></polygon><polygon points="327.62 201.86 336.01 201.86 337.19 184.35 326.43 184.35 327.62 201.86" style="opacity:0.2"></polygon><path d="M337.45,184.63a.86.86,0,1,0,0-1.71H326.18a.86.86,0,1,0,0,1.71Z" style="fill:#407BFF"></path><polygon points="327.21 195.78 336.42 195.78 336.29 197.69 327.34 197.69 327.21 195.78" style="fill:#407BFF"></polygon><polygon points="336.5 194.51 327.12 194.51 326.99 192.6 336.63 192.6 336.5 194.51" style="fill:#407BFF"></polygon><polygon points="327.43 198.96 336.2 198.96 336.07 200.87 327.56 200.87 327.43 198.96" style="fill:#407BFF"></polygon><path d="M337.45,184.63a.86.86,0,1,0,0-1.71H326.18a.86.86,0,1,0,0,1.71Z" style="opacity:0.4"></path><g style="opacity:0.4"><polygon points="327.21 195.78 336.42 195.78 336.29 197.69 327.34 197.69 327.21 195.78"></polygon><polygon points="336.5 194.51 327.12 194.51 326.99 192.6 336.63 192.6 336.5 194.51"></polygon><polygon points="327.43 198.96 336.2 198.96 336.07 200.87 327.56 200.87 327.43 198.96"></polygon></g><path d="M280,205a13.46,13.46,0,0,1,11.17,2.67c5.15,4.24,17.93,22.47,33.84-4.93l7.32,3.19s-10,21.54-23.45,23.1C296.68,230.45,282.65,222,280,205Z" style="fill:#407BFF"></path><path d="M283,209.49l3.86-.31a101.32,101.32,0,0,0,4.19,14.91A27.46,27.46,0,0,1,282.31,213Z" style="opacity:0.2"></path><path d="M280,205l-28.12,2.14a7,7,0,0,0-6.42,7.47c.56,7.42.88,9.17,1.33,20.39.71,17.66-2.25,35.44,12.47,30.57,0,0,6,1.59,19.69-1.67,0,0,13.1,2.89,12.71-3.37-.3-4.95-2.89-33.15-4.18-49.15A7,7,0,0,0,280,205Z" style="fill:#407BFF"></path><path d="M286.77,275a20.19,20.19,0,0,1-2.58,0c-.23-8-1.54-40.51-8.19-69.68l2.4-.18A334.8,334.8,0,0,1,286.77,275Z" style="fill:#263238"></path><path d="M253.76,207l2.36-.18a467.75,467.75,0,0,1,8.31,69.6c-1,0-1.85,0-2.53-.09C261.66,268.07,260.33,235.93,253.76,207Z" style="fill:#263238"></path><path d="M273.53,206.81s1.48,24,4,33.26l-2,2-2.45-2.27s-.92-13-1.11-20a70.11,70.11,0,0,1,.65-12.16Z" style="fill:#407BFF"></path><path d="M263.45,208.78s4.87,3.46,5.67,9,2.26,30.57,3.48,37.9l-2.14.59s-1.15-11.34-1.66-23.78,0-18.47-6.36-22.87Z" style="fill:#407BFF"></path><g style="opacity:0.5"><path d="M273.53,206.81s1.48,24,4,33.26l-2,2-2.45-2.27s-.92-13-1.11-20a70.11,70.11,0,0,1,.65-12.16Z" style="fill:#fff"></path><path d="M263.45,208.78s4.87,3.46,5.67,9,2.26,30.57,3.48,37.9l-2.14.59s-1.15-11.34-1.66-23.78,0-18.47-6.36-22.87Z" style="fill:#fff"></path></g><path d="M266.8,172.27s8.21,4.25,4.08,8.1S266.8,172.27,266.8,172.27Z" style="fill:#2e353a"></path><path d="M266.8,172.27s8.21,4.25,4.08,8.1S266.8,172.27,266.8,172.27Z" style="fill:#fff;opacity:0.30000000000000004"></path><path d="M272.78,205.68l-.45,3-3.51,1.2-4.72-.74L259.73,207a2.06,2.06,0,0,1,.14-.73c1.5-4.05-.33-11.06-1.72-15.05l10,6.3C267.77,201,268.58,204.67,272.78,205.68Z" style="fill:#eec1bb"></path><path d="M262.21,193.84l5.91,3.69a16.37,16.37,0,0,0,0,2.62,7.26,7.26,0,0,1-5.91-3.36C261.52,195.54,261.72,194.07,262.21,193.84Z" style="opacity:0.2;isolation:isolate"></path><path d="M255.43,184.78c1.72,6.15,2.42,9.83,6.25,12.34,5.77,3.8,12.84-.73,13-7.25.13-5.91-2.72-14.94-9.35-16.1a8.69,8.69,0,0,0-9.88,11Z" style="fill:#eec1bb"></path><path d="M265.56,184.48c.11.51.46.87.8.79s.51-.54.39-1.05-.46-.86-.79-.78S265.45,184,265.56,184.48Z" style="fill:#2e353a"></path><path d="M271.28,183.25c.12.5.47.85.8.78s.51-.54.4-1-.46-.87-.8-.79S271.17,182.74,271.28,183.25Z" style="fill:#2e353a"></path><path d="M269.2,183.9a18.43,18.43,0,0,0,3.36,3.8,3,3,0,0,1-2.32,1Z" style="fill:#d4827d"></path><path d="M263.07,182.53h-.15a.32.32,0,0,1-.15-.41,3.09,3.09,0,0,1,2.16-1.75.31.31,0,0,1,.09.61h0a2.4,2.4,0,0,0-1.69,1.4A.31.31,0,0,1,263.07,182.53Z" style="fill:#2e353a"></path><path d="M273,180.45a.29.29,0,0,1-.26-.11,2.43,2.43,0,0,0-1.95-1,.3.3,0,1,1-.05-.6,3,3,0,0,1,2.5,1.22.3.3,0,0,1,0,.41h0A.31.31,0,0,1,273,180.45Z" style="fill:#2e353a"></path><path d="M274.66,189.87c0-.51,0-1,0-1.58a8.81,8.81,0,0,0-4.15,1.2,29.5,29.5,0,0,0-5.6.58,4.62,4.62,0,0,1-4.93-2.38s-2-1.47-.48,1.63a4.19,4.19,0,0,1-.77,4.76,9.61,9.61,0,0,0,3,3C267.45,200.92,274.52,196.39,274.66,189.87Z" style="fill:#263238"></path><path d="M274.66,189.87c0-.51,0-1,0-1.58a8.81,8.81,0,0,0-4.15,1.2,29.5,29.5,0,0,0-5.6.58,4.62,4.62,0,0,1-4.93-2.38s-2-1.47-.48,1.63a4.19,4.19,0,0,1-.77,4.76,9.61,9.61,0,0,0,3,3C267.45,200.92,274.52,196.39,274.66,189.87Z" style="fill:#fff;opacity:0.30000000000000004"></path><path d="M272.58,190.32a47.65,47.65,0,0,0-7.51,1.42c.92,1.25,2.35,2.1,5.13,1.41S272.58,190.32,272.58,190.32Z" style="fill:#2e353a"></path><path d="M272.33,190.34c-.1.34-.1,1.24-.67,1.48a35.7,35.7,0,0,1-4.91.83c-.52,0-1.05-.56-1.44-1A55.4,55.4,0,0,1,272.33,190.34Z" style="fill:#fff"></path><path d="M258.15,190.34s2.87-1.06,1.49-3.36.87-5.52-.56-8.74c0,0,15.47-3.17,13.49-9.08a1.87,1.87,0,0,0-2.89-.87L267.3,170a4.9,4.9,0,0,0,.75-3.88,1.62,1.62,0,0,0-2.93-.25l-1.65,2.92a6.06,6.06,0,0,0,.46-2.8,1.51,1.51,0,0,0-2.86-.4,19.35,19.35,0,0,1-8.33,9.18C245.92,178.32,246.09,187.54,258.15,190.34Z" style="fill:#2e353a"></path><path d="M248.26,182.26c3.69-4,10.82-4,10.82-4,1.43,3.22-.82,6.44.56,8.74s-1.49,3.36-1.49,3.36C251.74,188.85,248.69,185.55,248.26,182.26Z" style="fill:#fff;opacity:0.30000000000000004"></path><path d="M253.64,191.25a6.08,6.08,0,0,0,4.25,1.82c2.13,0,2.11-2.26,1.57-3.75-.95-1.54-3.21-3.4-5.12-2.59A2.72,2.72,0,0,0,253.64,191.25Z" style="fill:#eec1bb"></path><path d="M273.05,204.79a.78.78,0,0,0-1,.76c0,1.11-.49,2.76-3.26,3.3-3.35.65-7.4-1.72-9.07-2.83a1.29,1.29,0,0,0-1.53.07l-.77.63,7.71,6.81L268.8,210l6.14,2.31-.73-7.17Z" style="fill:#407BFF"></path><path d="M273.05,204.79a.78.78,0,0,0-1,.76c0,1.11-.49,2.76-3.26,3.3-3.35.65-7.4-1.72-9.07-2.83a1.29,1.29,0,0,0-1.53.07l-.77.63,7.71,6.81L268.8,210l6.14,2.31-.73-7.17Z" style="opacity:0.30000000000000004"></path><path d="M276.86,202.72s1.18-1.79,5.72-1.24a6.39,6.39,0,0,1,4,2.06,2.75,2.75,0,0,1-1,4.34l-.81.36a3.54,3.54,0,0,1-2.46.14l-3.15-1S274.58,206.43,276.86,202.72Z" style="fill:#ce7a63"></path></g></svg>